<?xml version="1.0" encoding="UTF-8"?>
<svg xmlns="http://www.w3.org/2000/svg" viewBox="0 0 100 100" width="100" height="100">
<path d="M43.84 4.09C48.63 3.17 54.23 4.02 58.84 4.91C81.53 9.27 99.71 31.98 95.98 55.73C92.73 76.52 76.63 92.71 55.73 95.98C27.29 100.44 -0.47 72.88 4.02 44.27C7.34 23.06 23.22 8.06 43.84 4.09ZM47.93 27C48.93 25.58 48.9 10.33 47.89 8.99C47.59 8.74 47.3 8.5 47 8.25C41.16 11.17 34.07 19.49 34 26.25C36.24 26.92 47.26 29.05 47.93 27ZM52.11 8.99C51.1 10.33 51.07 25.58 52.07 27C52.76 29.11 63.73 26.93 66 26.25C65.93 19.54 58.8 11.15 53 8.25C52.7 8.5 52.41 8.74 52.11 8.99ZM36.75 10C31.09 11.22 22.8 16.21 19.5 21.25C21.52 23.27 26.72 24.97 29.75 25C30.61 22.1 36.89 11.07 36.75 10ZM63.25 10C63.11 11.07 69.39 22.1 70.25 25C73.69 24.96 77.88 23.38 80.5 21.25C77.17 16.17 68.97 11.23 63.25 10ZM8.06 48C13.71 47.98 19.36 47.96 25 47.94C26.84 47.32 25.74 44.51 26.02 42.77C26.67 38.6 28.58 33.15 27.75 29C23.92 27.67 20.08 26.33 16.25 25C10.99 30.26 7.71 40.77 8.06 48ZM75 47.94C80.64 47.96 86.29 47.98 91.94 48C92.29 40.8 89 30.25 83.75 25C79.92 26.33 76.08 27.67 72.25 29C71.42 33.15 73.33 38.6 73.98 42.77C74.26 44.51 73.16 47.32 75 47.94ZM31 47.94C36.67 47.97 42.34 47.99 48.02 48.02C48.01 42.7 48.01 37.38 48 32.06C42.75 31.54 37.5 31.02 32.25 30.5C31.7 33.27 28.53 47.11 31 47.94ZM52 32.06C51.99 37.38 51.99 42.7 51.98 48.02C57.66 47.99 63.33 47.97 69 47.94C71.09 47.23 68.87 32.58 67.25 30.5C62.17 31.02 57.08 31.54 52 32.06ZM8.06 52C7.71 59.23 10.99 69.74 16.25 75C20.08 73.67 23.92 72.33 27.75 71C28.58 66.85 26.67 61.4 26.02 57.23C25.74 55.49 26.84 52.68 25 52.06C19.36 52.04 13.71 52.02 8.06 52ZM31 52.06C28.91 52.77 31.13 67.42 32.75 69.5C37.83 68.98 42.92 68.46 48 67.94C48.01 62.62 48.01 57.3 48.02 51.98C42.34 52.01 36.67 52.03 31 52.06ZM51.98 51.98C51.99 57.3 51.99 62.62 52 67.94C57.08 68.46 62.17 68.98 67.25 69.5C68.87 67.42 71.09 52.77 69 52.06C63.33 52.03 57.66 52.01 51.98 51.98ZM75 52.06C73.16 52.68 74.26 55.49 73.98 57.23C73.33 61.4 71.42 66.85 72.25 71C76.08 72.33 79.92 73.67 83.75 75C89 69.75 92.29 59.2 91.94 52C86.29 52.02 80.64 52.04 75 52.06ZM47.89 91.01C48.9 89.67 48.93 74.42 47.93 73C47.24 70.89 36.27 73.07 34 73.75C34.07 80.46 41.2 88.85 47 91.75C47.3 91.5 47.59 91.26 47.89 91.01ZM52.07 73C51.07 74.42 51.1 89.67 52.11 91.01C52.41 91.26 52.7 91.5 53 91.75C58.8 88.85 65.93 80.46 66 73.75C63.76 73.08 52.74 70.95 52.07 73ZM29.75 75C26.31 75.04 22.12 76.62 19.5 78.75C22.12 82.76 32.34 89.75 37 89.75C36.33 86.65 31.17 79.79 29.75 75ZM70.25 75C69.37 77.96 63.09 88.8 63.25 90C69.31 87.63 76.79 84.42 80.5 78.75C78.01 76.73 73.4 75.03 70.25 75Z" fill="#ffffff" fill-rule="evenodd" stroke="#ffffff" stroke-width="0.25" stroke-linejoin="round"/>
<path d="M47.89 8.99C48.9 10.33 48.93 25.58 47.93 27C47.91 21 47.9 15 47.89 8.99ZM52.11 8.99C52.1 15 52.09 21 52.07 27C51.07 25.58 51.1 10.33 52.11 8.99ZM48 32.06C48.01 37.38 48.01 42.7 48.02 48.02C48.01 42.7 48.01 37.38 48 32.06ZM52 32.06C51.99 37.38 51.99 42.7 51.98 48.02C51.99 42.7 51.99 37.38 52 32.06ZM8.06 48C13.71 47.98 19.36 47.96 25 47.94C19.36 47.96 13.71 47.98 8.06 48ZM31 47.94C36.67 47.97 42.34 47.99 48.02 48.02C42.34 47.99 36.67 47.97 31 47.94ZM51.98 48.02C57.66 47.99 63.33 47.97 69 47.94C63.33 47.97 57.66 47.99 51.98 48.02ZM75 47.94C80.64 47.96 86.29 47.98 91.94 48C86.29 47.98 80.64 47.96 75 47.94ZM25 52.06C19.36 52.04 13.71 52.02 8.06 52C13.71 52.02 19.36 52.04 25 52.06ZM48.02 51.98C42.34 52.01 36.67 52.03 31 52.06C36.67 52.03 42.34 52.01 48.02 51.98ZM69 52.06C63.33 52.03 57.66 52.01 51.98 51.98C57.66 52.01 63.33 52.03 69 52.06ZM91.94 52C86.29 52.02 80.64 52.04 75 52.06C80.64 52.04 86.29 52.02 91.94 52ZM48.02 51.98C48.01 57.3 48.01 62.62 48 67.94C48.01 62.62 48.01 57.3 48.02 51.98ZM51.98 51.98C51.99 57.3 51.99 62.62 52 67.94C51.99 62.62 51.99 57.3 51.98 51.98ZM47.93 73C48.93 74.42 48.9 89.67 47.89 91.01C47.9 85 47.91 79 47.93 73ZM52.07 73C52.09 79 52.1 85 52.11 91.01C51.1 89.67 51.07 74.42 52.07 73Z" fill="#d0d0d0" fill-rule="evenodd" stroke="#d0d0d0" stroke-width="0.25" stroke-linejoin="round"/>
</svg>