<?xml version="1.0" encoding="UTF-8"?>
<svg xmlns="http://www.w3.org/2000/svg" viewBox="0 0 90 90" width="90" height="90">
<path d="M17.84 9.09C27.14 6.87 30.52 21.67 21.16 23.91C11.86 26.13 8.48 11.33 17.84 9.09ZM80.61 44.5C80.57 54.42 80.53 64.33 80.5 74.25C76 74.37 71.5 74.48 67 74.6C65.47 71.88 66.52 55.06 66.5 50.75C66.48 46.42 65.12 41.81 60.23 41.02C47.41 38.92 50.5 59.85 50.5 67.25C50.5 69.48 51.06 72.71 50 74.6C45.5 74.48 41 74.37 36.5 74.25C36.59 59.67 36.67 45.09 36.75 30.5C41 30.47 45.25 30.44 49.5 30.41C49.75 31.94 50 33.47 50.25 35C53.66 33.3 55.73 30.08 59.84 29.09C71.49 26.31 79.6 33.45 80.61 44.5ZM12.51 30.5C17.17 30.5 21.83 30.5 26.49 30.5C26.49 45.16 26.49 59.82 26.49 74.48C21.83 74.48 17.17 74.48 12.51 74.48C12.51 59.82 12.51 45.16 12.51 30.5Z" fill="#ffffff" fill-rule="evenodd" stroke="#ffffff" stroke-width="0.25" stroke-linejoin="round"/>
<path d="M12.25 29.5C17.08 29.5 21.92 29.5 26.75 29.5C28.47 33.51 27.5 39.34 27.5 43.75C27.5 54.06 27.84 64.44 27.45 74.75C23.35 76.56 16.8 75.62 12.25 75.45C10.71 71.97 11.5 67.1 11.5 63.25C11.5 55.75 11.5 48.25 11.5 40.75C11.5 37.12 10.84 32.79 12.25 29.5ZM49.5 30.41C45.25 30.44 41 30.47 36.75 30.5C36.67 45.09 36.59 59.67 36.5 74.25C41 74.37 45.5 74.48 50 74.6C48.47 76.29 37.81 75.75 35.55 74.75C35.16 64.44 35.5 54.06 35.5 43.75C35.5 39.38 34.51 33.49 36.25 29.55C39.33 29.44 47.51 28.2 49.5 30.41ZM12.51 30.5C12.51 45.16 12.51 59.82 12.51 74.48C17.17 74.48 21.83 74.48 26.49 74.48C26.49 59.82 26.49 45.16 26.49 30.5C21.83 30.5 17.17 30.5 12.51 30.5ZM80.61 44.5C82.26 46.13 81.5 50.39 81.5 52.75C81.51 60.07 81.72 67.43 81.45 74.75C79.19 75.75 68.53 76.29 67 74.6C71.5 74.48 76 74.37 80.5 74.25C80.53 64.33 80.57 54.42 80.61 44.5Z" fill="#d0d0d0" fill-rule="evenodd" stroke="#d0d0d0" stroke-width="0.25" stroke-linejoin="round"/>
</svg>